<?xml version="1.0" standalone="no"?>
<!DOCTYPE svg PUBLIC "-//W3C//DTD SVG 20010904//EN"
 "http://www.w3.org/TR/2001/REC-SVG-20010904/DTD/svg10.dtd">
<svg version="1.0" xmlns="http://www.w3.org/2000/svg"
 width="585.000000pt" height="585.000000pt" viewBox="0 0 585.000000 585.000000"
 preserveAspectRatio="xMidYMid meet">
<metadata>
Created by potrace 1.14, written by Peter Selinger 2001-2017
</metadata>
<g transform="translate(0.000000,585.000000) scale(0.100000,-0.100000)"
fill="#000000" stroke="none">
<path d="M2510 5825 c-303 -71 -614 -224 -865 -426 -100 -80 -262 -241 -343
-339 -34 -41 -68 -82 -75 -91 -8 -9 -43 -58 -79 -110 -217 -314 -377 -674
-472 -1062 -19 -78 -37 -153 -39 -167 -3 -14 -8 -45 -12 -70 -4 -25 -9 -54
-11 -65 -2 -11 -6 -40 -9 -65 -3 -25 -8 -56 -10 -70 -19 -105 -27 -569 -12
-743 13 -161 63 -457 97 -577 5 -19 19 -69 31 -110 27 -98 95 -290 125 -356
13 -29 24 -55 24 -59 0 -11 121 -248 163 -319 121 -207 267 -397 432 -560 124
-125 138 -136 250 -221 176 -133 391 -249 593 -319 57 -20 113 -38 125 -40 12
-3 51 -11 87 -20 36 -8 79 -18 95 -22 17 -4 147 -8 290 -10 223 -3 274 -1 360
16 456 87 861 317 1200 682 90 97 125 137 125 143 0 3 9 16 21 28 66 70 229
328 315 499 101 201 221 528 250 678 5 22 17 80 30 135 16 65 43 229 49 290 3
33 9 71 12 85 3 14 7 162 8 330 3 284 -4 406 -30 568 -3 20 -8 55 -11 77 -19
139 -90 412 -156 595 -49 138 -97 249 -171 395 -138 273 -369 583 -566 759
-19 17 -45 41 -58 53 -107 97 -261 204 -433 300 -113 63 -330 146 -465 178
-38 9 -79 19 -90 22 -11 4 -166 8 -345 9 -315 3 -328 3 -430 -21z"/>
</g>
</svg>
